<svg width="500" height="500" viewBox="0 0 500 500" fill="none" xmlns="http://www.w3.org/2000/svg"><g clip-path="url(#a)"><path d="M231.613 144.744c-15.387-55.818-84.725-73.799-124.463-32.083q-.856.898-1.711 1.827c-56.969 61.928-30.057 214.538 88.837 253.218s242.56-31.953 249.507-95.094-47.905-82.981-133.028-65.325c-48.092 9.974-69.563-27.795-79.142-62.543" fill="#cce1f7"/><path d="M351.57 157.596c-15.907 2.59-20.316 16.683-8.034 26.681 4.06 3.305 9.857 6.05 18.117 7.42 31.463 5.22 48.159-8.701 35.547-26.749-7.784-11.139-29.866-9.919-45.63-7.352M62.428 251.787c-9.889-12.726-24.373-9.849-27.27 5.721-.959 5.146-.594 11.551 2.158 19.458 10.48 30.122 30.695 38.116 40.503 18.403 6.053-12.168-5.59-30.97-15.39-43.582m216.724-122.341 1.653-8.426-7.895-1.549a19.3 19.3 0 0 0-1.045-6.167l6.505-4.37-4.789-7.128-6.226 4.183a19.2 19.2 0 0 0-6.391-4.3l1.551-7.896-8.426-1.653-1.597 8.138c-1.729.096-3.45.425-5.127.998l-4.37-6.506-7.128 4.789 4.183 6.226a19.2 19.2 0 0 0-4.3 6.391l-6.902-1.356-1.655 8.426 7.145 1.402a19.2 19.2 0 0 0 1.517 6.502l-6.227 4.183 4.789 7.128 6.506-4.37a19.2 19.2 0 0 0 6.277 3.647l-1.561 7.943 8.426 1.653 1.691-8.611a19.1 19.1 0 0 0 5.454-1.439l4.183 6.228 7.128-4.789-4.37-6.505a19.2 19.2 0 0 0 2.863-4.37zm-21.163-3.375c-3.603 2.42-8.502 1.459-10.922-2.144s-1.459-8.502 2.144-10.922 8.502-1.459 10.922 2.144 1.459 8.502-2.144 10.922m-26.457-35.357.903-4.605-4.314-.847a10.5 10.5 0 0 0-.571-3.371l3.555-2.388-2.617-3.895-3.402 2.286a10.5 10.5 0 0 0-3.493-2.35l.848-4.315-4.605-.903-.873 4.447c-.945.053-1.885.233-2.802.546l-2.388-3.556-3.895 2.617 2.286 3.403a10.5 10.5 0 0 0-2.35 3.493l-3.772-.741-.904 4.605 3.905.766c.067 1.205.337 2.406.829 3.553l-3.403 2.286 2.617 3.895 3.556-2.388a10.5 10.5 0 0 0 3.43 1.993l-.853 4.341 4.605.903.924-4.706a10.5 10.5 0 0 0 2.981-.786l2.286 3.403 3.895-2.617-2.388-3.555a10.5 10.5 0 0 0 1.564-2.388zm-11.565-1.844a4.306 4.306 0 0 1-5.969-1.172 4.306 4.306 0 0 1 1.172-5.969 4.307 4.307 0 0 1 5.969 1.172 4.307 4.307 0 0 1-1.172 5.969m243.13 25.37.903-4.605-4.314-.847a10.5 10.5 0 0 0-.571-3.371l3.555-2.388-2.617-3.895-3.402 2.286a10.5 10.5 0 0 0-3.493-2.35l.848-4.315-4.605-.903-.873 4.447c-.945.053-1.885.233-2.802.546l-2.388-3.556-3.895 2.617 2.286 3.403a10.5 10.5 0 0 0-2.35 3.493l-3.772-.741-.904 4.605 3.905.766c.067 1.205.337 2.407.829 3.553l-3.403 2.286 2.617 3.895 3.556-2.388a10.5 10.5 0 0 0 3.43 1.993l-.853 4.341 4.605.903.924-4.706a10.5 10.5 0 0 0 2.981-.786l2.286 3.403 3.895-2.617-2.388-3.555a10.5 10.5 0 0 0 1.565-2.388zm-11.565-1.844a4.307 4.307 0 0 1-5.969-1.172 4.306 4.306 0 0 1 1.172-5.969 4.306 4.306 0 0 1 5.969 1.172 4.306 4.306 0 0 1-1.172 5.969M69.425 171.462l.903-4.605-4.315-.847a10.5 10.5 0 0 0-.57-3.37l3.554-2.388-2.617-3.895-3.402 2.286a10.5 10.5 0 0 0-3.493-2.35l.847-4.315-4.605-.903-.873 4.447c-.945.053-1.885.233-2.802.546l-2.388-3.556-3.895 2.617 2.286 3.403a10.5 10.5 0 0 0-2.35 3.493l-3.772-.741-.904 4.605 3.905.766c.067 1.205.337 2.406.83 3.553l-3.404 2.286 2.617 3.895 3.556-2.388a10.5 10.5 0 0 0 3.43 1.993l-.853 4.341 4.605.903.924-4.706a10.5 10.5 0 0 0 2.981-.786l2.286 3.403 3.895-2.617-2.388-3.555a10.5 10.5 0 0 0 1.564-2.388zm-11.565-1.845a4.307 4.307 0 0 1-5.969-1.172 4.306 4.306 0 0 1 1.172-5.969 4.306 4.306 0 0 1 5.97 1.172 4.306 4.306 0 0 1-1.173 5.969m191.82 230.834c-76.285 0-142.976-3.327-179.169-8.291-3.806-.522-4.96 4.987-1.266 6.041 24.696 7.046 59.666 7.536 82.006 9.942 38.51 4.148 94.5 3 98.43 16.42 3.927 13.423 4.32 27.628-34.93 25.628-42.589-2.17-35.5-25.628-35.5-25.628-39.5 1.125-133.5-8.122-143.898-24.112-10.28-15.808 8.558-19.465 8.986-19.545l.006-.002c15.91-8.027 101.783-14.16 205.335-14.16 114.862 0 207.977 7.545 207.977 16.852 0 9.31-93.115 16.855-207.977 16.855" fill="#cce1f7"/><path d="M107.153 351.603c-9.158-9.231-29.163-30.867-41.766-55.43-18.086-35.252-36.222-32.101-39.78-19.64-9.205 32.229 45.005 67.256 67.483 80.194z" fill="#3b73ab"/><path d="M102.203 353.406C86.42 341.57 73.077 327.568 64.01 317.002c-12.125-14.128-19.428-25.328-19.502-25.442a.867.867 0 0 0-1.203-.253.866.866 0 0 0-.256 1.202c.071.113 7.427 11.391 19.62 25.605 8.956 10.441 22.064 24.216 37.585 36.003zm2.682-14.209c-4.242-8.465-12.285-26.2-15.267-44.272-4.456-27.002-17.049-28.757-22.019-21.312-13.65 20.447 19.063 58.059 29.498 69.193z" fill="#00528a"/><path d="M101.92 340.57c-7.967-11.18-13.844-23.312-17.604-32.237-4.993-11.851-7.433-20.759-7.457-20.849a.6.6 0 0 0-1.16.316c.023.089 2.481 9.059 7.5 20.981 3.764 8.941 9.643 21.08 17.611 32.303z" fill="#01305a"/><path d="M405.068 214.551c8.44-9.892 26.766-32.967 37.491-58.407 15.391-36.509 33.713-34.727 38.195-22.568 11.595 31.448-39.835 70.442-61.279 85.029z" fill="#3b73ab"/><path d="M410.141 215.978c14.851-12.986 27.106-27.95 35.355-39.167 11.031-14.998 17.474-26.714 17.539-26.833a.87.87 0 0 1 1.18-.343.866.866 0 0 1 .345 1.179c-.062.118-6.552 11.916-17.645 27.004-8.148 11.083-20.186 25.803-34.779 38.72zm-3.743-13.968c3.595-8.76 10.285-27.048 11.903-45.292 2.418-27.26 14.844-29.955 20.358-22.904 15.146 19.365-14.655 59.326-24.225 71.211z" fill="#00528a"/><path d="M409.457 203.157c7.106-11.746 12.057-24.285 15.136-33.467 4.09-12.192 5.855-21.258 5.872-21.349a.6.6 0 0 1 1.18.228c-.016.091-1.794 9.22-5.906 21.484-3.083 9.198-8.034 21.744-15.139 33.533z" fill="#01305a"/><path d="M148.715 111.193c1.574-14.739.348-28.984-6.986-25.471-7.342 3.517-4.769 27.991 5.214 44.134l2.083 6.303c-7.07-11.892-21.176-21.966-26.965-18.201-5.753 3.742 4.245 9.596 14.27 13.419 7.631 2.91 11.959 6.564 13.969 8.635l9.836 29.772c-11.249-18.799-33.531-34.678-42.692-28.72-9.129 5.938 6.736 15.226 22.642 21.292 12.02 4.584 18.88 10.335 22.1 13.632l1.961 5.936a293 293 0 0 0 3.244-.555l-11.702-35.42c.786-3.041 2.346-7.204 5.436-12.045 5.773-9.043 10.317-19.701 3.467-19.279-5.945.366-10.726 12.684-11.027 24.894l-4.047-12.249c-.608-4.003-1.483-9.715-.803-16.077" fill="#00528a"/><path d="M454.469 286.144c3.979-14.279 10.377-27.065 15.897-21.092 5.525 5.979-5.902 27.774-21.14 39.091l-4.263 5.089c10.961-8.441 27.79-12.596 31.78-6.959 3.965 5.602-7.488 7.35-18.216 7.202-8.166-.112-13.538 1.686-16.17 2.867l-20.133 24.037c17.395-13.318 43.965-19.848 50.279-10.929 6.292 8.888-11.882 11.663-28.903 11.428-12.863-.177-21.362 2.634-25.571 4.509l-4.014 4.793q-1.41-.849-2.81-1.714l23.953-28.597c.392-3.116.48-7.561-.605-13.201-2.027-10.535-2.314-22.118 3.896-19.197 5.39 2.535 5.285 15.747 1.058 27.206l8.284-9.89c2.039-3.494 4.961-8.48 6.678-14.643" fill="#3b73ab"/><path d="M120.8 263.796h16.46c-8.894-1.47-30.945-10.937-32.911-29.919-2.49-24.043-11.052-23.743-25.48-26.258-14.426-2.515-18.4 1.591-27.56-17.075s-29.595-21.019-29.595-21.019 18.626 20.323 15.062 35.769 8.787 21.614 18.678 23.555 7.52 15.234 11.279 23.772c1.715 3.896 8.736 7.935 15.864 11.175z" fill="#00528a"/><path d="M85.146 240.128c.72 7.2 4.86 15.764 11.075 22.905q.33.377.678.763h1.873a52 52 0 0 1-1.516-1.664c-5.947-6.831-10.065-15.316-10.748-22.141-1.085-10.866-9.48-18.271-27.228-24.009-10.3-3.329-13.554-15.904-13.584-16.032a.686.686 0 0 0-1.332.331c.136.547 3.46 13.44 14.493 17.007 17.156 5.546 25.265 12.591 26.29 22.84" fill="#01305a"/><path d="M112.333 263.796h34.602l.029-.104a44.8 44.8 0 0 0 1.644-10.603c.412-12.111.617-42.523-7.211-50.312-9.84-9.791-29.563-13.618-26.961-28.389s.654-35.222-22.697-38.545-41.59-40.064-41.59-40.064-7.68 29.631 13.329 52.343c21.008 22.712 13.18 26.031 8.945 47.405s-9.237 33.099 22.807 49.432c8.691 4.431 13.991 11.25 17.103 18.837" fill="#3b73ab"/><path d="M94.524 172.813c-1.54 27.709 4.246 43.332 18.749 50.657 9.109 4.604 18.682 14.864 24.981 26.778 1.988 3.762 4.012 8.332 5.583 13.549h2.13c-1.638-5.605-3.791-10.502-5.907-14.503-6.585-12.454-16.256-22.788-25.867-27.642-13.681-6.911-19.118-21.94-17.63-48.726.958-17.227-15.16-28.746-15.847-29.228a1.021 1.021 0 0 0-1.173 1.672c.16.109 15.876 11.36 14.98 27.443m219.634 36.128h16.857l17.09-11.133c4.202-6.605 7.881-13.822 7.191-18.022-1.511-9.206-10.753-19.049-3.525-26.075s14.211-18.936 2.793-29.932-6.903-38.191-6.903-38.191-15.84 13.126-13.326 33.766-3.057 19.37-13.772 29.351-18.054 14.403-7.017 35.908c4.125 8.036 3.314 16.741.612 24.328" fill="#00528a"/><path d="M333.047 179.369c3.328 6.425 4.533 15.861 3.223 25.237q-.07.495-.152 1.009l-1.569 1.022c.141-.765.262-1.509.362-2.221 1.254-8.97.073-18.327-3.079-24.418-5.022-9.697-2.029-20.485 9.709-34.979 6.814-8.412 2.676-20.724 2.631-20.848a.686.686 0 0 1 1.297-.449c.185.533 4.437 13.149-2.861 22.161-11.349 14.011-14.298 24.339-9.561 33.486" fill="#01305a"/><path d="M377.631 208.941a36.2 36.2 0 0 1 6.719-4.407c32.044-16.333 27.043-28.059 22.807-49.432-4.235-21.374-12.063-24.693 8.945-47.405s13.329-52.343 13.329-52.343-18.239 36.741-41.59 40.064-25.3 23.774-22.697 38.545c2.602 14.771-17.121 18.598-26.961 28.389-7.117 7.082-7.593 32.863-7.312 46.589z" fill="#3b73ab"/><path d="M341.801 208.941c6.299-11.536 15.622-21.407 24.505-25.897 14.503-7.325 20.288-22.948 18.749-50.657-.895-16.083 14.82-27.334 14.982-27.444a1.022 1.022 0 0 0-1.173-1.672c-.687.482-16.805 12-15.848 29.228 1.489 26.786-3.948 41.815-17.629 48.726-9.611 4.854-19.282 15.188-25.867 27.642l-.038.074z" fill="#00528a"/><path d="M419.402 168.376v180.91c0 7.458-6.046 13.504-13.504 13.504H97.586c-7.458 0-13.504-6.046-13.504-13.504v-180.91c0-7.458 6.046-13.504 13.504-13.504h308.312c7.458 0 13.504 6.046 13.504 13.504" fill="#01305a"/><path d="M404.507 177.573v162.515a8.66 8.66 0 0 1-8.657 8.66H107.637a8.63 8.63 0 0 1-6.44-2.873 8.6 8.6 0 0 1-2.22-5.787V177.573c0-4.783 3.88-8.66 8.66-8.66H395.85c1.6 0 3.095.432 4.38 1.19a8.7 8.7 0 0 1 2.97 2.893 8.6 8.6 0 0 1 1.307 4.577" fill="#fff"/><path d="M203.846 290.728h-11.81v15.238h-29.08v-15.238H116.86V271.68l37.716-54.605h30.731l-33.525 50.414h12.064v-13.588h28.191v13.588h11.81zm4.188-29.207c0-29.461 16.763-46.478 40.255-46.478s40.255 17.016 40.255 46.478c0 29.461-16.762 46.478-40.255 46.478-23.492 0-40.255-17.017-40.255-46.478m50.414 0c0-17.143-4.317-22.477-10.159-22.477-5.841 0-10.159 5.334-10.159 22.477s4.318 22.477 10.159 22.477 10.159-5.334 10.159-22.477m123.554 29.207h-11.81v15.238h-29.08v-15.238h-46.097V271.68l37.715-54.605h30.731l-33.525 50.414H342v-13.588h28.191v13.588h11.81v23.239z" fill="#9f62f2"/><path d="M450.725 355.56v1.156a26.18 26.18 0 0 1-4.979 15.405c-4.778 6.61-12.555 10.911-21.336 10.911H79.075c-8.781 0-16.558-4.3-21.336-10.911a26.17 26.17 0 0 1-4.98-15.405v-1.156z" fill="#01305a"/><path d="M207.139 355.56v.264c0 2.084 1.395 3.773 3.117 3.773h81.243c1.721 0 3.116-1.689 3.116-3.773v-.264z" fill="#01305a"/><path opacity=".2" d="M404.506 177.573v9.588H98.978v-9.588c0-1.845.575-3.553 1.562-4.955a8.64 8.64 0 0 1 7.098-3.705H395.85a8.62 8.62 0 0 1 7.095 3.705 8.6 8.6 0 0 1 1.561 4.955" fill="#01305a"/><path d="M330.698 180.928h-162.04a.76.76 0 0 1-.755-.755v-3.339c0-.415.339-.754.754-.754h162.041c.415 0 .754.34.754.755v3.339a.755.755 0 0 1-.754.754" fill="#fff"/><path d="M128.85 178.504v1.797a.67.67 0 0 1-1.004.58l-1.556-.898-1.556-.898a.67.67 0 0 1 0-1.16l1.556-.898 1.556-.898a.67.67 0 0 1 1.004.58zm8.096 0v1.797a.67.67 0 0 0 1.004.58l1.556-.898 1.556-.898a.67.67 0 0 0 0-1.16l-1.556-.898-1.556-.898a.67.67 0 0 0-1.004.58z" fill="#01305a"/><path opacity=".2" d="M402.945 172.618H100.54a8.64 8.64 0 0 1 7.098-3.705H395.85a8.62 8.62 0 0 1 7.095 3.705" fill="#01305a"/><path opacity=".1" d="M341.96 334.867H157.396a6.534 6.534 0 0 1-6.534-6.534 6.534 6.534 0 0 1 6.534-6.534H341.96a6.534 6.534 0 0 1 6.534 6.534 6.534 6.534 0 0 1-6.534 6.534" fill="#01305a"/><path d="M381.388 303.344c3.272 3.41 7.868 6.619 14.267 8.464a.42.42 0 0 0 .532-.353l.001-.008a.42.42 0 0 0-.302-.45c-6.237-1.798-10.71-4.925-13.896-8.246a.417.417 0 0 0-.711.226l-.001.011a.42.42 0 0 0 .11.356m.163-6.36v.018q0 .103.051.193.322.563.745 1.167c1.545 2.2 4.464 5.114 9.603 6.503q.05.014.1.013a.384.384 0 0 0 .1-.754c-5.531-1.496-8.429-4.834-9.879-7.336-.2-.342-.722-.199-.72.196m.699-17.383.001.008a.384.384 0 0 0 .453.353c4.65-.906 8.308-2.978 10.745-4.753 3.356-2.448 5.135-4.813 5.21-4.913a.383.383 0 0 0-.079-.537.385.385 0 0 0-.537.078c-.061.083-5.672 7.455-15.485 9.368a.38.38 0 0 0-.308.396" fill="#00528a"/><path d="M464.806 356.088c-1.707 6.665-6.485 11.72-13.813 14.62a35 35 0 0 1-5.418 1.637q.086-.112.168-.225a26 26 0 0 0 2.878-5.083c4.835-1.755 10.328-5.215 12.07-12.005 1.673-6.527-1.025-16.292-6.877-24.875-4.638-6.803-15.165-18.55-33.575-20.825-16.073-1.988-26.515.455-35.725 2.61-7.83 1.83-15.225 3.557-24.275 1.975-6.645-1.165-11.747-2.852-16.247-4.342-8.28-2.74-13.75-4.547-22.438-.99-14.65 6.003-21.182 30.883-21.247 31.133l-4.117-1.053c.285-1.107 7.122-27.197 23.755-34.012 10.14-4.155 16.867-1.93 25.382.887 4.363 1.445 9.308 3.08 15.645 4.19 8.198 1.435 14.86-.122 22.573-1.927 9.557-2.235 20.392-4.768 37.215-2.688 7.857.97 15.18 3.667 21.77 8.015 5.735 3.787 10.852 8.845 14.795 14.633 6.609 9.695 9.476 20.548 7.481 28.325" fill="#00528a"/><path d="m259.966 379.018 9.535-30.135c4.061-12.835 17.758-19.948 30.593-15.887s19.948 17.758 15.887 30.593l-9.535 30.135z" fill="#9f62f2"/><path d="M255.25 408.143a3 3 0 0 1-.878 2.12 3 3 0 0 1-2.122.88H240.3v-6h11.95a3 3 0 0 1 3 3m0 21.333c0 .83-.335 1.58-.878 2.122a3 3 0 0 1-2.122.878H240.3v-6h11.95a3 3 0 0 1 3 3" fill="#00528a"/><path d="M245.75 405.143h-5.45v6h5.45zm0 21.333h-5.45v6h5.45z" fill="#01305a"/><path d="m192.875 415.298-.165 4.747c-49.533-1.737-87.948-5.35-114.173-10.737-22.49-4.618-36.575-10.555-43.06-18.148-3.33-3.9-4.717-8.335-4.122-13.183 1.002-8.167 8.26-14.195 21.607-17.972.2 1.603.543 3.158 1.02 4.655-8.96 2.583-17.047 6.855-17.912 13.898-.433 3.517.555 6.632 3.02 9.517 5.69 6.665 19.285 12.242 40.402 16.58 25.968 5.336 64.115 8.916 113.383 10.643" fill="#00528a"/><path d="M240.299 443.184h-31.607c-13.462 0-24.375-10.913-24.375-24.375s10.913-24.375 24.375-24.375h31.607zm216.826-215.23v16.168a3.87 3.87 0 0 1-3.871 3.871h-29.356l-8.863 3.18c-.91.327-1.781-.568-1.432-1.468l3.353-8.658v-13.093a3.873 3.873 0 0 1 3.873-3.871h32.425a3.87 3.87 0 0 1 3.871 3.871" fill="#9f62f2"/><path d="M428.822 239.298a2.8 2.8 0 1 0 0-5.6 2.8 2.8 0 0 0 0 5.6m8.866 0a2.8 2.8 0 1 0-.001-5.601 2.8 2.8 0 0 0 .001 5.601m8.864 0a2.8 2.8 0 1 0-.001-5.601 2.8 2.8 0 0 0 .001 5.601M308.873 129.553a6.62 6.62 0 0 1 6.611-6.611 6.62 6.62 0 0 1 6.611 6.611 6.62 6.62 0 0 1-6.611 6.611 6.62 6.62 0 0 1-6.611-6.611m2.074 0a4.54 4.54 0 0 0 4.537 4.537 4.54 4.54 0 0 0 4.537-4.537 4.54 4.54 0 0 0-4.537-4.537 4.54 4.54 0 0 0-4.537 4.537m-24.172-28.317a6.62 6.62 0 0 1 6.611-6.611 6.62 6.62 0 0 1 6.611 6.611 6.62 6.62 0 0 1-6.611 6.611 6.62 6.62 0 0 1-6.611-6.611m2.074 0a4.54 4.54 0 0 0 4.537 4.537 4.54 4.54 0 0 0 4.537-4.537 4.54 4.54 0 0 0-4.537-4.537 4.543 4.543 0 0 0-4.537 4.537" fill="#9f62f2"/><path d="M288.85 132.876c.573 0 1.037-.464 1.037-1.037v-4.573a1.037 1.037 0 1 0-2.075 0v4.573c0 .573.465 1.037 1.038 1.037m0 8.002c.573 0 1.037-.464 1.037-1.037v-4.573a1.037 1.037 0 1 0-2.075 0v4.573c0 .573.465 1.037 1.038 1.037m-6.419-6.287h4.108a1.037 1.037 0 1 0 0-2.074h-4.108a1.037 1.037 0 1 0 0 2.074m8.728 0h4.108a1.037 1.037 0 1 0 0-2.074h-4.108a1.037 1.037 0 1 0 0 2.074" fill="#3b73ab"/><path d="M316.759 102.409c.573 0 1.037-.464 1.037-1.037v-4.573a1.037 1.037 0 1 0-2.074 0v4.573c0 .573.464 1.037 1.037 1.037m0 8.002c.573 0 1.037-.464 1.037-1.037v-4.573a1.037 1.037 0 1 0-2.074 0v4.573c0 .573.464 1.037 1.037 1.037m-6.419-6.287h4.108a1.037 1.037 0 0 0 0-2.074h-4.108a1.037 1.037 0 1 0 0 2.074m8.73 0h4.108a1.037 1.037 0 1 0 0-2.074h-4.108a1.037 1.037 0 1 0 0 2.074" fill="#00528a"/><path d="M117.788 84.261a6.62 6.62 0 0 1 6.61-6.611 6.62 6.62 0 0 1 6.611 6.611 6.62 6.62 0 0 1-6.611 6.61 6.62 6.62 0 0 1-6.61-6.61m2.074 0a4.54 4.54 0 0 0 4.537 4.537 4.54 4.54 0 0 0 4.537-4.537 4.54 4.54 0 0 0-4.537-4.537 4.54 4.54 0 0 0-4.537 4.537" fill="#9f62f2"/><path d="M92.367 96.7a6.62 6.62 0 0 1 6.611-6.611 6.62 6.62 0 0 1 6.61 6.611 6.62 6.62 0 0 1-6.61 6.61 6.617 6.617 0 0 1-6.61-6.61m2.074 0a4.54 4.54 0 0 0 4.537 4.537 4.54 4.54 0 0 0 4.537-4.537 4.54 4.54 0 0 0-4.537-4.537 4.54 4.54 0 0 0-4.537 4.537" fill="#3b73ab"/><path d="M88.563 114.494c.573 0 1.037-.464 1.037-1.037v-4.573a1.037 1.037 0 1 0-2.074 0v4.573c0 .573.464 1.037 1.037 1.037m0 8.002c.573 0 1.037-.464 1.037-1.037v-4.573a1.037 1.037 0 1 0-2.074 0v4.573c0 .573.464 1.037 1.037 1.037m-6.419-6.287h4.108a1.037 1.037 0 1 0 0-2.074h-4.108a1.037 1.037 0 1 0 0 2.074m8.731 0h4.108a1.037 1.037 0 0 0 0-2.074h-4.108a1.037 1.037 0 1 0 0 2.074" fill="#9f62f2"/><path d="M107.152 71.722c.573 0 1.037-.464 1.037-1.037v-4.573a1.037 1.037 0 1 0-2.074 0v4.573c0 .572.464 1.037 1.037 1.037m0 8.002c.573 0 1.037-.464 1.037-1.037v-4.573a1.037 1.037 0 1 0-2.074 0v4.573c0 .573.464 1.037 1.037 1.037m-6.419-6.287h4.108a1.037 1.037 0 1 0 0-2.074h-4.108a1.037 1.037 0 0 0 0 2.074m8.731 0h4.108a1.037 1.037 0 1 0 0-2.074h-4.108a1.037 1.037 0 1 0 0 2.074" fill="#00528a"/></g><defs><clipPath id="a"><path fill="#fff" d="M0 0h500v500H0z"/></clipPath></defs></svg>